# xmcd
#
# Track frame offsets:
#	150
#	18037
#	46200
#	61462
#	72162
#	128212
#	144075
#	165825
#
# Disc length: 2574 seconds
#
# Revision: 1
# Processed by: cddbd v1.4PL0 Copyright (c) Steve Scherf et al.
# Submitted via: EasyCDDAExtractor 5.0.7
#
DISCID=5c0a0c08
DTITLE=The Doors - Doors Live 03-07-1967  Disc 3
DYEAR=1967
DGENRE=
TTITLE0=My Eyes Have Seen You
TTITLE1=Soul Kitchen
TTITLE2=I Can't See Your Face In My Mind
TTITLE3=People Are Strange
TTITLE4=When The Music's Over
TTITLE5=Money
TTITLE6=Who Do You Love?
TTITLE7=Moon Light Drive
EXTD=
EXTT0=
EXTT1=
EXTT2=
EXTT3=
EXTT4=
EXTT5=
EXTT6=
EXTT7=
PLAYORDER=
